<svg width="65" height="66" viewBox="0 0 65 66" fill="none" xmlns="http://www.w3.org/2000/svg">
<g filter="url(#filter0_d_380_1406)">
<rect x="0.48291" y="0.949219" width="60.9524" height="60.8408" rx="30.4204" fill="#ECECEC"/>
<rect x="0.98291" y="1.44922" width="59.9524" height="59.8408" rx="29.9204" stroke="black"/>
<path d="M45.126 46.58L41.7482 43.608L39.8443 41.8413L37.8312 39.9756L38.6583 42.8799H20.8466C19.0628 42.8734 17.6214 41.4259 17.626 39.6454V18.4402C17.6232 16.661 19.0641 15.2154 20.8466 15.209H41.9054C43.6879 15.2154 45.1288 16.661 45.126 18.4402V46.58ZM37.641 32.5588C36.9436 33.4925 35.9394 34.1518 34.8042 34.4213C35.2706 35.0157 35.833 35.6877 35.838 35.6943C37.7355 35.7342 39.5322 34.8434 40.6466 33.3101C40.5895 30.1312 39.816 27.006 38.3837 24.1662C37.1226 23.1785 35.5876 22.602 33.987 22.5151H33.9688L33.7488 22.7661C35.1785 23.1494 36.5117 23.8278 37.6625 24.7573C36.1983 23.9539 34.5916 23.4425 32.9317 23.2515C31.8767 23.1346 30.8116 23.1451 29.7591 23.2829C29.6846 23.2844 29.6105 23.2921 29.5374 23.306H29.4911C28.2577 23.4478 27.0542 23.7821 25.9248 24.2967C25.3591 24.5559 25.0117 24.7441 24.9968 24.7507C24.9819 24.7573 24.9968 24.7507 24.9968 24.7392C26.2174 23.7809 27.6255 23.0886 29.1305 22.7067L28.9651 22.5184H28.9552C27.3546 22.6055 25.8196 23.182 24.5585 24.1695C23.1209 27.0073 22.3472 30.1338 22.2956 33.3134C23.3962 34.857 25.1953 35.7512 27.0926 35.6976C27.0926 35.6976 27.6848 34.9777 28.1463 34.3948C27.0397 34.1173 26.0646 33.4633 25.3888 32.5456C25.4004 32.5539 25.5642 32.6645 25.8288 32.8098C25.8466 32.8306 25.8686 32.8476 25.8934 32.8593C25.9143 32.8738 25.9364 32.8866 25.9595 32.8973C25.9857 32.9092 26.0106 32.9235 26.034 32.9402C26.403 33.1433 26.7861 33.3198 27.1803 33.4686C27.9297 33.7648 28.7049 33.9913 29.496 34.1455C30.1888 34.2758 30.892 34.3422 31.5968 34.3437C32.2576 34.3437 32.9171 34.2827 33.5669 34.162C34.3494 34.0248 35.1137 33.7988 35.8446 33.4884C36.4762 33.246 37.0786 32.9341 37.641 32.5588ZM34.2699 31.8538C33.5502 31.9164 32.8658 31.5317 32.5464 30.8849C32.2272 30.2382 32.3382 29.462 32.8263 28.9303C33.3145 28.3988 34.0795 28.2209 34.7527 28.4822C35.426 28.7436 35.8694 29.3908 35.8694 30.1119C35.9058 31.033 35.1909 31.811 34.2682 31.8538H34.2699ZM28.5334 31.8538C27.6283 31.775 26.9337 31.0187 26.9337 30.1119C26.9337 29.2051 27.6283 28.4487 28.5334 28.37C28.9503 28.3713 29.3488 28.541 29.6383 28.8405C29.9668 29.1808 30.1455 29.6378 30.1345 30.1102C30.1729 31.033 29.456 31.8127 28.5317 31.8538H28.5334Z" fill="#252525"/>
</g>
<defs>
<filter id="filter0_d_380_1406" x="0.48291" y="0.949219" width="63.9521" height="64.8408" filterUnits="userSpaceOnUse" color-interpolation-filters="sRGB">
<feFlood flood-opacity="0" result="BackgroundImageFix"/>
<feColorMatrix in="SourceAlpha" type="matrix" values="0 0 0 0 0 0 0 0 0 0 0 0 0 0 0 0 0 0 127 0" result="hardAlpha"/>
<feOffset dx="3" dy="4"/>
<feComposite in2="hardAlpha" operator="out"/>
<feColorMatrix type="matrix" values="0 0 0 0 0.0555986 0 0 0 0 0.149942 0 0 0 0 0.140011 0 0 0 1 0"/>
<feBlend mode="normal" in2="BackgroundImageFix" result="effect1_dropShadow_380_1406"/>
<feBlend mode="normal" in="SourceGraphic" in2="effect1_dropShadow_380_1406" result="shape"/>
</filter>
</defs>
</svg>
