<svg width="65" height="66" viewBox="0 0 65 66" fill="none" xmlns="http://www.w3.org/2000/svg">
<g filter="url(#filter0_d_380_1404)">
<rect x="0.768555" y="0.900391" width="60.9524" height="60.8408" rx="30.4204" fill="#ECECEC"/>
<rect x="1.26855" y="1.40039" width="59.9524" height="59.8408" rx="29.9204" stroke="black"/>
<path d="M30.7372 46.5312C26.4505 46.5312 25.9451 46.5086 24.2723 46.4355C22.9677 46.3927 21.6801 46.128 20.4648 45.6528C18.3621 44.836 16.6994 43.1758 15.8819 41.0766C15.4242 39.859 15.1773 38.5728 15.1518 37.2726C15.0542 35.6063 15.0542 35.0601 15.0542 30.8144C15.0542 26.5234 15.0769 26.0224 15.1518 24.3613C15.1778 23.063 15.4247 21.7784 15.8819 20.5626C16.6985 18.4606 18.3639 16.7989 20.47 15.9846C21.6875 15.5258 22.9747 15.2787 24.2758 15.2541C25.9399 15.1602 26.487 15.1602 30.7372 15.1602C35.0587 15.1602 35.5553 15.1828 37.2021 15.2541C38.5063 15.2789 39.7971 15.526 41.0182 15.9846C43.1237 16.7999 44.7888 18.4612 45.6064 20.5626C46.0718 21.7961 46.3199 23.1008 46.34 24.4187C46.4375 26.0851 46.4375 26.6295 46.4375 30.8735C46.4375 35.1175 46.4132 35.6741 46.34 37.3213C46.314 38.6227 46.0664 39.9101 45.6081 41.1287C44.7884 43.2294 43.1232 44.8903 41.0182 45.7067C39.7988 46.1628 38.5109 46.4092 37.209 46.4355C35.5449 46.5312 34.9995 46.5312 30.7372 46.5312ZM30.678 17.9136C26.4156 17.9136 25.973 17.9344 24.3089 18.0092C23.3156 18.0224 22.3319 18.2053 21.4006 18.5502C20.0253 19.0755 18.937 20.1573 18.4051 21.5279C18.057 22.4677 17.8737 23.4603 17.8632 24.4622C17.7708 26.1477 17.7708 26.5895 17.7708 30.8144C17.7708 34.9888 17.7865 35.495 17.8632 37.17C17.8788 38.1617 18.062 39.1438 18.4051 40.0747C18.9378 41.4444 20.0259 42.5254 21.4006 43.0507C22.3313 43.3979 23.3154 43.5809 24.3089 43.5917C25.9956 43.6891 26.44 43.6891 30.678 43.6891C34.9524 43.6891 35.395 43.6682 37.0452 43.5917C38.0392 43.5797 39.0235 43.3967 39.9553 43.0507C41.3221 42.5209 42.4034 41.4423 42.935 40.0782C43.2825 39.1377 43.4656 38.1445 43.477 37.1421H43.4961C43.5711 35.4793 43.5711 35.0358 43.5711 30.7865C43.5711 26.5373 43.5519 26.0903 43.477 24.4292C43.4613 23.4385 43.278 22.4577 42.935 21.5279C42.4046 20.1618 41.3232 19.0812 39.9553 18.5502C39.0237 18.2036 38.0392 18.0206 37.0452 18.0092C35.3602 17.9136 34.9193 17.9136 30.678 17.9136ZM30.7372 38.8484C27.4785 38.8505 24.5396 36.8929 23.291 33.8887C22.0424 30.8843 22.73 27.4249 25.0331 25.124C27.3363 22.8231 30.8013 22.1337 33.8123 23.3775C36.8232 24.6212 38.7869 27.5531 38.7878 30.8057C38.7829 35.2429 35.1824 38.8397 30.7372 38.8484ZM30.7372 25.5841C27.85 25.5841 25.5095 27.9204 25.5095 30.8022C25.5095 33.6841 27.85 36.0203 30.7372 36.0203C33.6243 36.0203 35.9648 33.6841 35.9648 30.8022C35.958 27.923 33.6215 25.5908 30.7372 25.5841ZM39.1014 24.344C38.0653 24.3401 37.228 23.4997 37.2299 22.4655C37.2318 21.4313 38.0723 20.5939 39.1084 20.5939C40.1443 20.5939 40.9848 21.4313 40.9869 22.4655C40.9872 22.9644 40.7886 23.443 40.4348 23.7955C40.0811 24.148 39.6012 24.3453 39.1014 24.344Z" fill="#252525"/>
</g>
<defs>
<filter id="filter0_d_380_1404" x="0.768555" y="0.900391" width="63.9521" height="64.8408" filterUnits="userSpaceOnUse" color-interpolation-filters="sRGB">
<feFlood flood-opacity="0" result="BackgroundImageFix"/>
<feColorMatrix in="SourceAlpha" type="matrix" values="0 0 0 0 0 0 0 0 0 0 0 0 0 0 0 0 0 0 127 0" result="hardAlpha"/>
<feOffset dx="3" dy="4"/>
<feComposite in2="hardAlpha" operator="out"/>
<feColorMatrix type="matrix" values="0 0 0 0 0.0555986 0 0 0 0 0.149942 0 0 0 0 0.140011 0 0 0 1 0"/>
<feBlend mode="normal" in2="BackgroundImageFix" result="effect1_dropShadow_380_1404"/>
<feBlend mode="normal" in="SourceGraphic" in2="effect1_dropShadow_380_1404" result="shape"/>
</filter>
</defs>
</svg>
