<svg width="55" height="55" viewBox="0 0 55 55" fill="none" xmlns="http://www.w3.org/2000/svg">
<g id="Home">
<path id="Vector" fill-rule="evenodd" clip-rule="evenodd" d="M27.5 11.4583L29.7917 11.4583C31.3859 11.608 31.9244 12.0705 32.0833 13.75V16.0417H34.375C35.9692 16.1913 36.5078 16.6538 36.6667 18.3333V20.625H38.9583C40.5525 20.7746 41.0911 21.2371 41.25 22.9167V25.2083C42.8442 25.358 43.3828 25.8205 43.5417 27.5V41.25C43.392 42.8442 42.9295 43.3828 41.25 43.5417H34.375V38.9583V34.375H20.625V38.9583V43.5417H13.75C12.1558 43.392 11.6172 42.9295 11.4583 41.25L11.4583 27.5C11.608 25.9058 12.0705 25.3672 13.75 25.2083V22.9167C13.8996 21.3225 14.3621 20.7839 16.0417 20.625H18.3333V18.3333C18.483 16.7391 18.9455 16.2006 20.625 16.0417H22.9167V13.75C23.0663 12.1558 23.5288 11.6172 25.2083 11.4583H27.5ZM41.25 18.3333C41.4089 20.0129 41.9475 20.4754 43.5417 20.625H45.8333V22.9167C45.9922 24.5962 46.5308 25.0587 48.125 25.2083V43.5417H45.8333C44.1538 43.7006 43.6913 44.2391 43.5417 45.8333V48.125H34.375H29.7917V38.9583H25.2083V48.125H20.625H11.4583L11.4583 45.8333C11.2994 44.1538 10.7609 43.6913 9.16667 43.5417H6.875V25.2083C8.55452 25.0494 9.01702 24.5109 9.16667 22.9167L9.16667 20.625H11.4583C13.1379 20.4661 13.6004 19.9275 13.75 18.3333V16.0417H16.0417C17.7212 15.8828 18.1837 15.3442 18.3333 13.75V11.4583H20.625C22.3045 11.2994 22.767 10.7609 22.9167 9.16667V6.875H27.5H32.0833V9.16667C32.2422 10.8462 32.7808 11.3087 34.375 11.4583H36.6667V13.75C36.8256 15.4295 37.3641 15.892 38.9583 16.0417H41.25V18.3333Z" fill="white"/>
</g>
</svg>
