<svg width="24" height="24" viewBox="0 0 24 24" fill="none" xmlns="http://www.w3.org/2000/svg">
<path fill-rule="evenodd" clip-rule="evenodd" d="M12.0005 3.30991L13.2419 3.30991C14.1055 3.39097 14.3972 3.6415 14.4833 4.55129V5.79267H15.7247C16.5882 5.87373 16.88 6.12426 16.9661 7.03404V8.27542H18.2074C19.071 8.35649 19.3627 8.60702 19.4488 9.5168V10.7582C20.3124 10.8392 20.6041 11.0898 20.6902 11.9996V19.4478C20.6091 20.3114 20.3586 20.6031 19.4488 20.6892H15.7247V18.2065V15.7237H8.2764V18.2065V20.6892H4.55226C3.6887 20.6082 3.39696 20.3576 3.31088 19.4478L3.31088 11.9996C3.39195 11.136 3.64248 10.8443 4.55226 10.7582V9.5168C4.63333 8.65324 4.88386 8.3615 5.79364 8.27542H7.03502V7.03404C7.11608 6.17048 7.36662 5.87874 8.2764 5.79267H9.51778V4.55129C9.59884 3.68772 9.84938 3.39598 10.7592 3.30991H12.0005ZM19.4488 7.03404C19.5349 7.94383 19.8266 8.19436 20.6902 8.27542H21.9316V9.5168C22.0176 10.4266 22.3094 10.6771 23.173 10.7582V20.6892H21.9316C21.0218 20.7753 20.7713 21.067 20.6902 21.9306V23.172H15.7247H13.2419V18.2065H10.7592V23.172H8.2764H3.31088L3.31088 21.9306C3.22481 21.0208 2.93307 20.7703 2.0695 20.6892H0.828125V10.7582C1.73791 10.6721 1.98844 10.3804 2.0695 9.5168L2.0695 8.27542H3.31088C4.22067 8.18935 4.4712 7.89761 4.55226 7.03404V5.79267H5.79364C6.70342 5.70659 6.95396 5.41485 7.03502 4.55129V3.30991H8.2764C9.18618 3.22384 9.43672 2.9321 9.51778 2.06853V0.827148H12.0005H14.4833V2.06853C14.5694 2.97831 14.8611 3.22884 15.7247 3.30991H16.9661V4.55129C17.0521 5.46107 17.3439 5.7116 18.2074 5.79267H19.4488V7.03404Z" fill="#ECECEC"/>
</svg>
