<svg width="55" height="55" viewBox="0 0 55 55" fill="none" xmlns="http://www.w3.org/2000/svg">
<g id="List">
<path id="Vector" fill-rule="evenodd" clip-rule="evenodd" d="M11.4583 9.16675H18.3333L18.3333 11.4584C18.4922 13.1379 19.0308 13.6004 20.625 13.7501H22.9167V20.6251H20.625C18.9455 20.784 18.483 21.3225 18.3333 22.9167V25.2084H11.4583V22.9167C11.2994 21.2372 10.7609 20.7747 9.16667 20.6251H6.875V13.7501H9.16667C10.8462 13.5912 11.3087 13.0526 11.4583 11.4584L11.4583 9.16675ZM13.75 20.6251C12.1558 20.4754 11.6172 20.0129 11.4583 18.3334V16.0417C11.608 14.4475 12.0705 13.909 13.75 13.7501L16.0417 13.7501C17.6359 13.8997 18.1744 14.3622 18.3333 16.0417V18.3334C18.1837 19.9276 17.7212 20.4662 16.0417 20.6251H13.75ZM11.4583 29.7917H18.3333L18.3333 32.0834C18.4922 33.7629 19.0308 34.2254 20.625 34.3751H22.9167V41.2501H20.625C18.9455 41.409 18.483 41.9475 18.3333 43.5417V45.8334H11.4583V43.5417C11.2994 41.8622 10.7609 41.3997 9.16667 41.2501H6.875V34.3751H9.16667C10.8462 34.2162 11.3087 33.6776 11.4583 32.0834L11.4583 29.7917ZM13.75 41.2501C12.1558 41.1004 11.6172 40.6379 11.4583 38.9584V36.6667C11.608 35.0725 12.0705 34.534 13.75 34.3751H16.0417C17.6359 34.5247 18.1744 34.9872 18.3333 36.6667V38.9584C18.1837 40.5526 17.7212 41.0912 16.0417 41.2501H13.75ZM48.125 13.7501L27.5 13.7501V18.3334L48.125 18.3334V13.7501ZM27.5 36.6667H48.125V41.2501H27.5V36.6667ZM38.9583 25.2084H27.5V29.7917H38.9583V25.2084Z" fill="white"/>
</g>
</svg>
