<svg width="24" height="24" viewBox="0 0 24 24" fill="none" xmlns="http://www.w3.org/2000/svg">
<g clip-path="url(#clip0_1424_708)">
<path d="M22.8584 11.4297H21.7109V17.1447H22.8584V11.4297Z" fill="white"/>
<path d="M20.5702 18.292H21.7102V17.1445H20.5702V11.4295H21.7102V10.2895H20.5702V8.00195H19.4227V10.2895H4.57266V8.00195H3.42516V10.2895H2.28516V11.4295H3.42516V17.1445H2.28516V18.292H3.42516V19.432H4.57266V11.4295H19.4227V19.432H20.5702V18.292Z" fill="white"/>
<path d="M20.5713 0H19.4238V1.1475H20.5713V0Z" fill="white"/>
<path d="M19.4232 19.4326H18.2832V20.5726H19.4232V19.4326Z" fill="white"/>
<path d="M19.4232 5.71484H18.2832V8.00234H19.4232V5.71484Z" fill="white"/>
<path d="M19.4232 1.14746H18.2832V2.28746H19.4232V1.14746Z" fill="white"/>
<path d="M18.2845 4.57422H17.1445V5.71422H18.2845V4.57422Z" fill="white"/>
<path d="M18.2845 2.28711H17.1445V3.43461H18.2845V2.28711Z" fill="white"/>
<path d="M15.9961 22.8598H17.1436V21.7198H18.2836V20.5723H15.9961V22.8598Z" fill="white"/>
<path d="M17.143 3.43555H14.8555V4.57555H17.143V3.43555Z" fill="white"/>
<path d="M15.9948 22.8604H13.7148V24.0004H15.9948V22.8604Z" fill="white"/>
<path d="M10.2812 20.5723V22.8598H11.4287V21.7198H12.5688V22.8598H13.7163V20.5723H10.2812Z" fill="white"/>
<path d="M14.8556 2.28711H9.14062V3.43461H14.8556V2.28711Z" fill="white"/>
<path d="M10.282 22.8604H8.00195V24.0004H10.282V22.8604Z" fill="white"/>
<path d="M17.1435 9.14234V6.86234H15.996V5.71484H8.00102V6.86234H6.85352V9.14234H17.1435ZM13.716 6.86234H14.856V8.00234H13.716V6.86234ZM9.14102 6.86234H10.281V8.00234H9.14102V6.86234Z" fill="white"/>
<path d="M9.14102 3.43555H6.85352V4.57555H9.14102V3.43555Z" fill="white"/>
<path d="M5.71289 20.5723V21.7198H6.85289V22.8598H8.00039V20.5723H5.71289Z" fill="white"/>
<path d="M6.85289 4.57422H5.71289V5.71422H6.85289V4.57422Z" fill="white"/>
<path d="M6.85289 2.28711H5.71289V3.43461H6.85289V2.28711Z" fill="white"/>
<path d="M5.71422 19.4326H4.57422V20.5726H5.71422V19.4326Z" fill="white"/>
<path d="M5.71422 5.71484H4.57422V8.00234H5.71422V5.71484Z" fill="white"/>
<path d="M5.71422 1.14746H4.57422V2.28746H5.71422V1.14746Z" fill="white"/>
<path d="M4.57328 0H3.42578V1.1475H4.57328V0Z" fill="white"/>
<path d="M2.28617 11.4297H1.13867V17.1447H2.28617V11.4297Z" fill="white"/>
</g>
<defs>
<clipPath id="clip0_1424_708">
<rect width="24" height="24" fill="white"/>
</clipPath>
</defs>
</svg>
