<svg width="55" height="55" viewBox="0 0 55 55" fill="none" xmlns="http://www.w3.org/2000/svg">
<g id="User">
<path id="Vector2" fill-rule="evenodd" clip-rule="evenodd" d="M22.9045 29.7918L22.8922 29.7815L22.8835 29.7918H13.75V32.0835C13.6003 33.6777 13.1378 34.2163 11.4583 34.3752H9.16666V45.8335H13.75H41.25H45.8333V34.3752H43.5417C41.9475 34.2255 41.4089 33.763 41.25 32.0835V29.7918H32.0833V29.8389L32.0565 29.8071L28.0138 33.2293H26.9793L22.9167 29.8021V29.7918H22.9045ZM41.25 41.2502V36.6668C41.0911 34.9873 40.5525 34.5248 38.9583 34.3752H33.7501L29.7917 37.7156V37.8127H25.2083V37.7405L21.2269 34.3752H16.0417C14.3621 34.5341 13.8996 35.0726 13.75 36.6668V41.2502H41.25Z" fill="white"/>
<path id="Vector" fill-rule="evenodd" clip-rule="evenodd" d="M22.9166 6.87511L32.0833 6.875L32.0833 6.87593V6.87504L36.6667 11.4583V11.4584V20.625L32.0833 25.2083H22.9167L18.3333 20.625V11.4585V11.4583H18.3335L22.9166 6.87523V6.87511ZM22.9167 20.625H32.0833V11.4585L22.9167 11.4584V11.4585V20.625Z" fill="white"/>
</g>
</svg>
