<svg width="29" height="32" viewBox="0 0 29 32" fill="none" xmlns="http://www.w3.org/2000/svg">
<path d="M28.125 31.58L24.7472 28.608L22.8433 26.8413L20.8303 24.9756L21.6573 27.8799H3.84561C2.06183 27.8734 0.620445 26.4259 0.625011 24.6454V3.4402C0.622265 1.66095 2.06312 0.215358 3.84561 0.208984H24.9044C26.6869 0.215358 28.1278 1.66095 28.125 3.4402V31.58ZM20.64 17.5588C19.9426 18.4925 18.9384 19.1518 17.8032 19.4213C18.2697 20.0157 18.8321 20.6877 18.837 20.6943C20.7345 20.7342 22.5312 19.8434 23.6456 18.3101C23.5885 15.1312 22.8151 12.006 21.3827 9.16624C20.1216 8.1785 18.5866 7.60203 16.986 7.51513H16.9679L16.7479 7.7661C18.1775 8.1494 19.5108 8.82776 20.6615 9.75733C19.1973 8.95392 17.5906 8.44247 15.9307 8.25152C14.8757 8.13458 13.8106 8.14509 12.7581 8.28289C12.6836 8.28436 12.6095 8.29209 12.5364 8.30601H12.4901C11.2567 8.44776 10.0533 8.78206 8.92381 9.29667C8.35809 9.5559 8.01073 9.74412 7.99584 9.75073C7.98095 9.75733 7.99584 9.75073 7.99584 9.73917C9.21641 8.78093 10.6245 8.08856 12.1295 7.70666L11.9641 7.51843H11.9542C10.3536 7.60554 8.81865 8.18198 7.55749 9.16954C6.1199 12.0073 5.34618 15.1338 5.29463 18.3134C6.3952 19.857 8.19433 20.7512 10.0916 20.6976C10.0916 20.6976 10.6838 19.9777 11.1453 19.3948C10.0387 19.1173 9.06362 18.4633 8.38787 17.5456C8.39945 17.5539 8.56321 17.6645 8.82787 17.8098C8.84565 17.8306 8.86763 17.8476 8.89238 17.8593C8.91334 17.8738 8.93547 17.8866 8.95854 17.8973C8.98471 17.9092 9.00964 17.9235 9.03298 17.9402C9.40203 18.1433 9.78512 18.3198 10.1793 18.4686C10.9288 18.7648 11.704 18.9913 12.4951 19.1455C13.1878 19.2758 13.891 19.3422 14.5958 19.3437C15.2566 19.3437 15.9162 19.2827 16.5659 19.162C17.3485 19.0248 18.1127 18.7988 18.8436 18.4884C19.4752 18.246 20.0776 17.9341 20.64 17.5588ZM17.2689 16.8538C16.5492 16.9164 15.8649 16.5317 15.5455 15.8849C15.2262 15.2382 15.3372 14.462 15.8253 13.9303C16.3135 13.3988 17.0785 13.2209 17.7517 13.4822C18.425 13.7436 18.8685 14.3908 18.8685 15.1119C18.9048 16.033 18.1899 16.811 17.2672 16.8538H17.2689ZM11.5324 16.8538C10.6273 16.775 9.93276 16.0187 9.93276 15.1119C9.93276 14.2051 10.6273 13.4487 11.5324 13.37C11.9493 13.3713 12.3479 13.541 12.6373 13.8405C12.9658 14.1808 13.1445 14.6378 13.1336 15.1102C13.1719 16.033 12.455 16.8127 11.5307 16.8538H11.5324Z" fill="#252525"/>
</svg>
