<svg width="33" height="32" viewBox="0 0 33 32" fill="none" xmlns="http://www.w3.org/2000/svg">
<path d="M0.483398 15.94C0.485248 23.7039 6.14124 30.3145 13.8233 31.5312V20.5011H9.81192V15.94H13.828V12.468C13.6484 10.8228 14.2114 9.18314 15.3642 7.99371C16.517 6.80427 18.1402 6.18836 19.7935 6.31301C20.9801 6.33215 22.1638 6.43764 23.3352 6.62867V10.5095H21.3367C20.6486 10.4195 19.9569 10.6463 19.4563 11.126C18.9557 11.6057 18.7005 12.2864 18.7626 12.9762V15.94H23.1439L22.4435 20.5026H18.7626V31.5312C27.0704 30.2206 32.8962 22.6471 32.0194 14.2973C31.1426 5.94745 23.8699 -0.255616 15.4705 0.181943C7.07086 0.619502 0.484742 7.5445 0.483398 15.94Z" fill="#252525"/>
</svg>
