<svg width="32" height="32" viewBox="0 0 32 32" fill="none" xmlns="http://www.w3.org/2000/svg">
<path d="M15.7377 31.5312C11.4509 31.5312 10.9456 31.5086 9.27276 31.4355C7.96824 31.3927 6.68062 31.128 5.46529 30.6528C3.36258 29.836 1.6999 28.1758 0.882397 26.0766C0.424647 24.859 0.177746 23.5728 0.15227 22.2726C0.0546875 20.6063 0.0546875 20.0601 0.0546875 15.8144C0.0546875 11.5234 0.0773406 11.0224 0.15227 9.36135C0.178304 8.06297 0.425188 6.77842 0.882397 5.5626C1.69901 3.46064 3.36439 1.79894 5.47052 0.984611C6.68795 0.525786 7.97517 0.278693 9.27624 0.254081C10.9404 0.160156 11.4875 0.160156 15.7377 0.160156C20.0592 0.160156 20.5558 0.182768 22.2025 0.254081C23.5068 0.278902 24.7975 0.52596 26.0187 0.984611C28.1242 1.79986 29.7892 3.46124 30.6068 5.5626C31.0723 6.79615 31.3204 8.10077 31.3405 9.41875C31.438 11.0851 31.438 11.6295 31.438 15.8735C31.438 20.1175 31.4136 20.6741 31.3405 22.3213C31.3145 23.6227 31.0669 24.9101 30.6086 26.1287C29.7889 28.2294 28.1237 29.8903 26.0187 30.7067C24.7993 31.1628 23.5114 31.4092 22.2095 31.4355C20.5454 31.5312 20 31.5312 15.7377 31.5312ZM15.6784 2.91356C11.4161 2.91356 10.9735 2.93443 9.30935 3.00922C8.31608 3.02237 7.3324 3.20533 6.40104 3.55016C5.02575 4.07546 3.93748 5.15733 3.4056 6.52794C3.05748 7.46771 2.87414 8.46033 2.86367 9.46223C2.77132 11.1477 2.77132 11.5895 2.77132 15.8144C2.77132 19.9888 2.787 20.495 2.86367 22.17C2.87929 23.1617 3.0625 24.1438 3.4056 25.0747C3.93827 26.4444 5.02635 27.5254 6.40104 28.0507C7.33177 28.3979 8.31584 28.5809 9.30935 28.5917C10.9961 28.6891 11.4405 28.6891 15.6784 28.6891C19.9529 28.6891 20.3955 28.6682 22.0457 28.5917C23.0397 28.5797 24.024 28.3967 24.9558 28.0507C26.3226 27.5209 27.4039 26.4423 27.9355 25.0782C28.283 24.1377 28.4661 23.1445 28.4775 22.1421H28.4966C28.5715 20.4793 28.5716 20.0358 28.5716 15.7865C28.5716 11.5373 28.5524 11.0903 28.4775 9.42918C28.4618 8.43855 28.2785 7.45766 27.9355 6.52794C27.4051 5.16181 26.3237 4.08119 24.9558 3.55016C24.0242 3.20359 23.0397 3.02058 22.0457 3.00922C20.3607 2.91356 19.9198 2.91356 15.6784 2.91356ZM15.7377 23.8484C12.479 23.8505 9.5401 21.8929 8.29148 18.8887C7.04284 15.8843 7.73045 12.4249 10.0336 10.124C12.3368 7.82306 15.8018 7.13372 18.8128 8.37746C21.8237 9.62121 23.7874 12.5531 23.7883 15.8057C23.7834 20.2429 20.1829 23.8397 15.7377 23.8484ZM15.7377 10.5841C12.8505 10.5841 10.51 12.9204 10.51 15.8022C10.51 18.6841 12.8505 21.0203 15.7377 21.0203C18.6247 21.0203 20.9653 18.6841 20.9653 15.8022C20.9585 12.923 18.622 10.5908 15.7377 10.5841ZM24.1019 9.34397C23.0658 9.34013 22.2285 8.49965 22.2304 7.46547C22.2323 6.43128 23.0728 5.59392 24.1089 5.59392C25.1448 5.59392 25.9853 6.43126 25.9874 7.46545C25.9877 7.96442 25.789 8.44302 25.4353 8.7955C25.0816 9.148 24.6017 9.34535 24.1019 9.34397Z" fill="#252525"/>
</svg>
