<svg width="33" height="32" viewBox="0 0 33 32" fill="none" xmlns="http://www.w3.org/2000/svg">
<path d="M18.2767 31.58H11.2926V10.666H18.2767V14.1516C19.7654 12.2611 22.023 11.1341 24.4315 11.079C28.7627 11.103 32.2575 14.6212 32.2449 18.9444V31.58H25.2608V19.8159C24.9815 17.8684 23.3084 16.4236 21.3375 16.4278C20.4755 16.455 19.6617 16.8318 19.0841 17.471C18.5065 18.1105 18.2149 18.9572 18.2767 19.8159V31.58ZM7.80053 31.58H0.816406V10.666H7.80053V31.58ZM4.30847 7.18032C2.37985 7.18032 0.816406 5.61973 0.816406 3.69465C0.816406 1.76957 2.37985 0.208984 4.30847 0.208984C6.23708 0.208984 7.80053 1.76957 7.80053 3.69465C7.80053 4.6191 7.43262 5.5057 6.77772 6.15938C6.12284 6.81308 5.23461 7.18032 4.30847 7.18032Z" fill="#252525"/>
</svg>
