<svg width="32" height="27" viewBox="0 0 32 27" fill="none" xmlns="http://www.w3.org/2000/svg">
<path d="M28.0673 4.98093C29.4141 4.17722 30.422 2.91169 30.9025 1.42061C29.6369 2.17017 28.2521 2.69819 26.8082 2.98181C24.8064 0.868008 21.6345 0.353591 19.0651 1.72603C16.4958 3.09846 15.1649 6.01797 15.8162 8.8532C10.6321 8.5934 5.80223 6.14908 2.52841 2.12847C0.819867 5.07005 1.69297 8.83037 4.52369 10.7219C3.50007 10.689 2.49914 10.4123 1.60439 9.915C1.60439 9.94199 1.60439 9.969 1.60439 9.996C1.60498 13.0601 3.7685 15.6996 6.77739 16.3068C5.82792 16.5646 4.83199 16.6025 3.86561 16.4178C4.7118 19.0382 7.13129 20.8334 9.889 20.8869C7.60499 22.6762 4.78432 23.6467 1.88085 23.6419C1.36621 23.6427 0.851975 23.6131 0.34082 23.5534C3.28925 25.4446 6.72085 26.4483 10.2256 26.4449C15.1015 26.4783 19.7872 24.5596 23.2349 21.1179C26.6826 17.6762 28.6046 12.9987 28.5706 8.13183C28.5706 7.85289 28.5642 7.57544 28.5511 7.29949C29.8139 6.38857 30.9037 5.2601 31.7694 3.96712C30.593 4.48762 29.3452 4.82934 28.0673 4.98093Z" fill="#252525"/>
</svg>
