<svg width="32" height="23" viewBox="0 0 32 23" fill="none" xmlns="http://www.w3.org/2000/svg">
<path d="M15.931 22.8735H15.8996C15.8023 22.8735 6.06273 22.8547 3.60548 22.1886C2.25427 21.8253 1.19901 20.7713 0.835763 19.4224C0.393896 16.9342 0.180531 14.4108 0.198289 11.8839C0.186874 9.35276 0.406034 6.82589 0.853034 4.33441C1.22627 2.98423 2.27688 1.92546 3.62589 1.53999C6.01563 0.913086 15.4867 0.913086 15.8886 0.913086H15.9216C16.0205 0.913086 25.7852 0.931893 28.2173 1.59798C29.5657 1.96316 30.6188 3.01493 30.9839 4.36105C31.4398 6.85854 31.6538 9.39398 31.6229 11.9325C31.6339 14.4605 31.4142 16.9842 30.9666 19.4725C30.5987 20.8198 29.5428 21.8714 28.1922 22.2356C25.8056 22.8672 16.333 22.8735 15.931 22.8735ZM12.7907 7.18995L12.7829 16.5935L20.9664 11.8917L12.7907 7.18995Z" fill="#252525"/>
</svg>
